#N canvas 45 42 912 418 10;
#X obj 32 301 list prepend send;
#X obj 32 319 list trim;
#X obj 20 342 netsend -u -b;
#X msg 46 113 reset;
#X obj 433 45 oscparse;
#X obj 433 69 list trim;
#X obj 433 92 route data;
#X obj 490 122 print;
#X msg 126 113 stop;
#X msg 86 113 start;
#X obj 46 241 oscformat;
#X msg 73 216 set \$1;
#X obj 46 198 t b a;
#X obj 46 180 symbol;
#X obj 433 19 netreceive -u -b 15555;
#X msg 20 19 connect OpenBCI_WifiShieldOSC.local 13999;
#X obj 32 79 oscformat port;
#X msg 32 61 15555;
#X text 71 61 send to port;
#X msg 97 150 version;
#X msg 149 150 name;
#X msg 183 150 board;
#X msg 224 150 all;
#X text 178 202 approx 100-15000;
#X floatatom 143 203 5 0 0 0 - - -;
#X obj 143 220 oscformat latency;
#X obj 195 377 oscformat command;
#X msg 195 259 ~~;
#X obj 195 359 symbol;
#X msg 201 278 ~4;
#X text 226 258 get samplerate;
#X text 230 277 set samplerate to 1000Hz;
#X text 244 334 etc. see https://docs.openbci.com/OpenBCI%20Software/04-OpenBCI_Cyton_SDK
;
#X msg 213 316 $!;
#X text 242 315 turn channel 1 on;
#X text 238 296 turn channel 1 off;
#X msg 207 297 \\\$1;
#N canvas 0 23 879 475 decode 0;
#X obj 37 37 inlet;
#X obj 37 60 route 32;
#X obj 37 82 route 192;
#X text 94 60 length;
#X text 99 82 footer 0xC0;
#X obj 37 420 outlet;
#X obj 196 418 outlet;
#X obj 389 422 outlet;
#X text 34 443 num;
#X text 196 443 data;
#X text 387 443 accel;
#X obj 733 106 expr 0.002/pow(2 \, 4);
#X obj 733 84 loadbang;
#X text 732 64 accScale;
#X obj 499 61 loadbang;
#X text 498 41 uVscale;
#X msg 499 87 24;
#X obj 499 106 expr 4.5/$i1/(pow(2 \, 23)-1)*1000000;
#X text 527 86 default gain;
#N canvas 0 23 203 319 (subpatch) 0;
#X obj 37 37 inlet;
#X obj 37 275 outlet;
#X obj 36 106 << 8;
#X obj 36 133 +;
#X obj 92 37 inlet;
#X obj 36 161 moses 32768;
#X obj 99 185 t b f;
#X obj 99 229 -;
#X obj 99 207 65536;
#X connect 0 0 2 0;
#X connect 2 0 3 0;
#X connect 3 0 5 0;
#X connect 4 0 3 1;
#X connect 5 0 1 0;
#X connect 5 1 6 0;
#X connect 6 0 8 0;
#X connect 6 1 7 1;
#X connect 7 0 1 0;
#X connect 8 0 7 0;
#X restore 389 339 pd 16;
#X obj 389 359 *;
#X obj 389 383 pack f f f;
#N canvas 0 23 203 319 (subpatch) 0;
#X obj 37 37 inlet;
#X obj 37 275 outlet;
#X obj 36 106 << 8;
#X obj 36 133 +;
#X obj 92 37 inlet;
#X obj 36 161 moses 32768;
#X obj 99 185 t b f;
#X obj 99 229 -;
#X obj 99 207 65536;
#X connect 0 0 2 0;
#X connect 2 0 3 0;
#X connect 3 0 5 0;
#X connect 4 0 3 1;
#X connect 5 0 1 0;
#X connect 5 1 6 0;
#X connect 6 0 8 0;
#X connect 6 1 7 1;
#X connect 7 0 1 0;
#X connect 8 0 7 0;
#X restore 425 339 pd 16;
#X obj 425 359 *;
#N canvas 0 23 203 319 (subpatch) 0;
#X obj 37 37 inlet;
#X obj 37 275 outlet;
#X obj 36 106 << 8;
#X obj 36 133 +;
#X obj 92 37 inlet;
#X obj 36 161 moses 32768;
#X obj 99 185 t b f;
#X obj 99 229 -;
#X obj 99 207 65536;
#X connect 0 0 2 0;
#X connect 2 0 3 0;
#X connect 3 0 5 0;
#X connect 4 0 3 1;
#X connect 5 0 1 0;
#X connect 5 1 6 0;
#X connect 6 0 8 0;
#X connect 6 1 7 1;
#X connect 7 0 1 0;
#X connect 8 0 7 0;
#X restore 461 339 pd 16;
#X obj 461 359 *;
#X obj 37 106 unpack f f f f f f f f f f f f f f f f f f f f f f f
f f f f f f f f;
#N canvas 0 23 338 272 filterZeros 0;
#X obj 35 20 inlet;
#X obj 34 179 outlet;
#X obj 34 154 spigot;
#X obj 67 84 expr $f1+$f2+$f3+$f4+$f5+$f6;
#X obj 67 108 > 0;
#X obj 35 56 t l l;
#X connect 0 0 5 0;
#X connect 2 0 1 0;
#X connect 3 0 4 0;
#X connect 4 0 2 1;
#X connect 5 0 2 0;
#X connect 5 1 3 0;
#X restore 389 298 pd filterZeros;
#X obj 389 280 pack f f f f f f;
#X obj 389 316 unpack f f f f f f;
#N canvas 0 23 286 356 (subpatch) 0;
#X obj 37 37 inlet;
#X obj 37 311 outlet;
#X obj 36 142 << 8;
#X obj 36 169 +;
#X obj 146 37 inlet;
#X obj 135 221 t b f;
#X obj 135 265 -;
#X obj 198 37 inlet;
#X obj 36 197 moses 8.38861e+06;
#X obj 135 243 8.38861e+06;
#X obj 146 67 << 8;
#X obj 146 94 +;
#X obj 146 122 moses 32768;
#X obj 209 145 t b f;
#X obj 209 189 -;
#X obj 209 167 65536;
#X connect 0 0 2 0;
#X connect 2 0 3 0;
#X connect 3 0 8 0;
#X connect 4 0 10 0;
#X connect 5 0 9 0;
#X connect 5 1 6 1;
#X connect 6 0 1 0;
#X connect 7 0 11 1;
#X connect 8 0 1 0;
#X connect 8 1 5 0;
#X connect 9 0 6 0;
#X connect 10 0 11 0;
#X connect 11 0 12 0;
#X connect 12 0 3 1;
#X connect 12 1 13 0;
#X connect 13 0 15 0;
#X connect 13 1 14 1;
#X connect 14 0 3 1;
#X connect 15 0 14 0;
#X restore 53 198 pd 24;
#X obj 53 220 *;
#X obj 53 288 pack f f f f f f f f;
#N canvas 0 23 286 356 (subpatch) 0;
#X obj 37 37 inlet;
#X obj 37 311 outlet;
#X obj 36 142 << 8;
#X obj 36 169 +;
#X obj 146 37 inlet;
#X obj 135 221 t b f;
#X obj 135 265 -;
#X obj 198 37 inlet;
#X obj 36 197 moses 8.38861e+06;
#X obj 135 243 8.38861e+06;
#X obj 146 67 << 8;
#X obj 146 94 +;
#X obj 146 122 moses 32768;
#X obj 209 145 t b f;
#X obj 209 189 -;
#X obj 209 167 65536;
#X connect 0 0 2 0;
#X connect 2 0 3 0;
#X connect 3 0 8 0;
#X connect 4 0 10 0;
#X connect 5 0 9 0;
#X connect 5 1 6 1;
#X connect 6 0 1 0;
#X connect 7 0 11 1;
#X connect 8 0 1 0;
#X connect 8 1 5 0;
#X connect 9 0 6 0;
#X connect 10 0 11 0;
#X connect 11 0 12 0;
#X connect 12 0 3 1;
#X connect 12 1 13 0;
#X connect 13 0 15 0;
#X connect 13 1 14 1;
#X connect 14 0 3 1;
#X connect 15 0 14 0;
#X restore 89 198 pd 24;
#X obj 89 220 *;
#N canvas 0 23 286 356 (subpatch) 0;
#X obj 37 37 inlet;
#X obj 37 311 outlet;
#X obj 36 142 << 8;
#X obj 36 169 +;
#X obj 146 37 inlet;
#X obj 135 221 t b f;
#X obj 135 265 -;
#X obj 198 37 inlet;
#X obj 36 197 moses 8.38861e+06;
#X obj 135 243 8.38861e+06;
#X obj 146 67 << 8;
#X obj 146 94 +;
#X obj 146 122 moses 32768;
#X obj 209 145 t b f;
#X obj 209 189 -;
#X obj 209 167 65536;
#X connect 0 0 2 0;
#X connect 2 0 3 0;
#X connect 3 0 8 0;
#X connect 4 0 10 0;
#X connect 5 0 9 0;
#X connect 5 1 6 1;
#X connect 6 0 1 0;
#X connect 7 0 11 1;
#X connect 8 0 1 0;
#X connect 8 1 5 0;
#X connect 9 0 6 0;
#X connect 10 0 11 0;
#X connect 11 0 12 0;
#X connect 12 0 3 1;
#X connect 12 1 13 0;
#X connect 13 0 15 0;
#X connect 13 1 14 1;
#X connect 14 0 3 1;
#X connect 15 0 14 0;
#X restore 125 198 pd 24;
#X obj 125 220 *;
#N canvas 0 23 286 356 (subpatch) 0;
#X obj 37 37 inlet;
#X obj 37 311 outlet;
#X obj 36 142 << 8;
#X obj 36 169 +;
#X obj 146 37 inlet;
#X obj 135 221 t b f;
#X obj 135 265 -;
#X obj 198 37 inlet;
#X obj 36 197 moses 8.38861e+06;
#X obj 135 243 8.38861e+06;
#X obj 146 67 << 8;
#X obj 146 94 +;
#X obj 146 122 moses 32768;
#X obj 209 145 t b f;
#X obj 209 189 -;
#X obj 209 167 65536;
#X connect 0 0 2 0;
#X connect 2 0 3 0;
#X connect 3 0 8 0;
#X connect 4 0 10 0;
#X connect 5 0 9 0;
#X connect 5 1 6 1;
#X connect 6 0 1 0;
#X connect 7 0 11 1;
#X connect 8 0 1 0;
#X connect 8 1 5 0;
#X connect 9 0 6 0;
#X connect 10 0 11 0;
#X connect 11 0 12 0;
#X connect 12 0 3 1;
#X connect 12 1 13 0;
#X connect 13 0 15 0;
#X connect 13 1 14 1;
#X connect 14 0 3 1;
#X connect 15 0 14 0;
#X restore 161 198 pd 24;
#X obj 161 220 *;
#N canvas 0 23 286 356 (subpatch) 0;
#X obj 37 37 inlet;
#X obj 37 311 outlet;
#X obj 36 142 << 8;
#X obj 36 169 +;
#X obj 146 37 inlet;
#X obj 135 221 t b f;
#X obj 135 265 -;
#X obj 198 37 inlet;
#X obj 36 197 moses 8.38861e+06;
#X obj 135 243 8.38861e+06;
#X obj 146 67 << 8;
#X obj 146 94 +;
#X obj 146 122 moses 32768;
#X obj 209 145 t b f;
#X obj 209 189 -;
#X obj 209 167 65536;
#X connect 0 0 2 0;
#X connect 2 0 3 0;
#X connect 3 0 8 0;
#X connect 4 0 10 0;
#X connect 5 0 9 0;
#X connect 5 1 6 1;
#X connect 6 0 1 0;
#X connect 7 0 11 1;
#X connect 8 0 1 0;
#X connect 8 1 5 0;
#X connect 9 0 6 0;
#X connect 10 0 11 0;
#X connect 11 0 12 0;
#X connect 12 0 3 1;
#X connect 12 1 13 0;
#X connect 13 0 15 0;
#X connect 13 1 14 1;
#X connect 14 0 3 1;
#X connect 15 0 14 0;
#X restore 197 198 pd 24;
#X obj 197 220 *;
#N canvas 0 23 286 356 (subpatch) 0;
#X obj 37 37 inlet;
#X obj 37 311 outlet;
#X obj 36 142 << 8;
#X obj 36 169 +;
#X obj 146 37 inlet;
#X obj 135 221 t b f;
#X obj 135 265 -;
#X obj 198 37 inlet;
#X obj 36 197 moses 8.38861e+06;
#X obj 135 243 8.38861e+06;
#X obj 146 67 << 8;
#X obj 146 94 +;
#X obj 146 122 moses 32768;
#X obj 209 145 t b f;
#X obj 209 189 -;
#X obj 209 167 65536;
#X connect 0 0 2 0;
#X connect 2 0 3 0;
#X connect 3 0 8 0;
#X connect 4 0 10 0;
#X connect 5 0 9 0;
#X connect 5 1 6 1;
#X connect 6 0 1 0;
#X connect 7 0 11 1;
#X connect 8 0 1 0;
#X connect 8 1 5 0;
#X connect 9 0 6 0;
#X connect 10 0 11 0;
#X connect 11 0 12 0;
#X connect 12 0 3 1;
#X connect 12 1 13 0;
#X connect 13 0 15 0;
#X connect 13 1 14 1;
#X connect 14 0 3 1;
#X connect 15 0 14 0;
#X restore 233 198 pd 24;
#X obj 233 220 *;
#N canvas 0 23 286 356 (subpatch) 0;
#X obj 37 37 inlet;
#X obj 37 311 outlet;
#X obj 36 142 << 8;
#X obj 36 169 +;
#X obj 146 37 inlet;
#X obj 135 221 t b f;
#X obj 135 265 -;
#X obj 198 37 inlet;
#X obj 36 197 moses 8.38861e+06;
#X obj 135 243 8.38861e+06;
#X obj 146 67 << 8;
#X obj 146 94 +;
#X obj 146 122 moses 32768;
#X obj 209 145 t b f;
#X obj 209 189 -;
#X obj 209 167 65536;
#X connect 0 0 2 0;
#X connect 2 0 3 0;
#X connect 3 0 8 0;
#X connect 4 0 10 0;
#X connect 5 0 9 0;
#X connect 5 1 6 1;
#X connect 6 0 1 0;
#X connect 7 0 11 1;
#X connect 8 0 1 0;
#X connect 8 1 5 0;
#X connect 9 0 6 0;
#X connect 10 0 11 0;
#X connect 11 0 12 0;
#X connect 12 0 3 1;
#X connect 12 1 13 0;
#X connect 13 0 15 0;
#X connect 13 1 14 1;
#X connect 14 0 3 1;
#X connect 15 0 14 0;
#X restore 269 198 pd 24;
#X obj 269 220 *;
#N canvas 0 23 286 356 (subpatch) 0;
#X obj 37 37 inlet;
#X obj 37 311 outlet;
#X obj 36 142 << 8;
#X obj 36 169 +;
#X obj 146 37 inlet;
#X obj 135 221 t b f;
#X obj 135 265 -;
#X obj 198 37 inlet;
#X obj 36 197 moses 8.38861e+06;
#X obj 135 243 8.38861e+06;
#X obj 146 67 << 8;
#X obj 146 94 +;
#X obj 146 122 moses 32768;
#X obj 209 145 t b f;
#X obj 209 189 -;
#X obj 209 167 65536;
#X connect 0 0 2 0;
#X connect 2 0 3 0;
#X connect 3 0 8 0;
#X connect 4 0 10 0;
#X connect 5 0 9 0;
#X connect 5 1 6 1;
#X connect 6 0 1 0;
#X connect 7 0 11 1;
#X connect 8 0 1 0;
#X connect 8 1 5 0;
#X connect 9 0 6 0;
#X connect 10 0 11 0;
#X connect 11 0 12 0;
#X connect 12 0 3 1;
#X connect 12 1 13 0;
#X connect 13 0 15 0;
#X connect 13 1 14 1;
#X connect 14 0 3 1;
#X connect 15 0 14 0;
#X restore 305 198 pd 24;
#X obj 305 220 *;
#X text 495 279 three dimensions of 16bit data;
#X text 342 196 eight channels of 24bit data;
#X text 17 393 sample index (0-255;
#X connect 0 0 1 0;
#X connect 1 0 2 0;
#X connect 2 0 26 0;
#X connect 11 0 20 1;
#X connect 11 0 23 1;
#X connect 11 0 25 1;
#X connect 12 0 11 0;
#X connect 14 0 16 0;
#X connect 16 0 17 0;
#X connect 17 0 31 1;
#X connect 17 0 34 1;
#X connect 17 0 36 1;
#X connect 17 0 38 1;
#X connect 17 0 40 1;
#X connect 17 0 42 1;
#X connect 17 0 44 1;
#X connect 17 0 46 1;
#X connect 19 0 20 0;
#X connect 20 0 21 0;
#X connect 21 0 7 0;
#X connect 22 0 23 0;
#X connect 23 0 21 1;
#X connect 24 0 25 0;
#X connect 25 0 21 2;
#X connect 26 0 5 0;
#X connect 26 1 30 0;
#X connect 26 2 30 1;
#X connect 26 3 30 2;
#X connect 26 4 33 0;
#X connect 26 5 33 1;
#X connect 26 6 33 2;
#X connect 26 7 35 0;
#X connect 26 8 35 1;
#X connect 26 9 35 2;
#X connect 26 10 37 0;
#X connect 26 11 37 1;
#X connect 26 12 37 2;
#X connect 26 13 39 0;
#X connect 26 14 39 1;
#X connect 26 15 39 2;
#X connect 26 16 41 0;
#X connect 26 17 41 1;
#X connect 26 18 41 2;
#X connect 26 19 43 0;
#X connect 26 20 43 1;
#X connect 26 21 43 2;
#X connect 26 22 45 0;
#X connect 26 23 45 1;
#X connect 26 24 45 2;
#X connect 26 25 28 0;
#X connect 26 26 28 1;
#X connect 26 27 28 2;
#X connect 26 28 28 3;
#X connect 26 29 28 4;
#X connect 26 30 28 5;
#X connect 27 0 29 0;
#X connect 28 0 27 0;
#X connect 29 0 19 0;
#X connect 29 1 19 1;
#X connect 29 2 22 0;
#X connect 29 3 22 1;
#X connect 29 4 24 0;
#X connect 29 5 24 1;
#X connect 30 0 31 0;
#X connect 31 0 32 0;
#X connect 32 0 6 0;
#X connect 33 0 34 0;
#X connect 34 0 32 1;
#X connect 35 0 36 0;
#X connect 36 0 32 2;
#X connect 37 0 38 0;
#X connect 38 0 32 3;
#X connect 39 0 40 0;
#X connect 40 0 32 4;
#X connect 41 0 42 0;
#X connect 42 0 32 5;
#X connect 43 0 44 0;
#X connect 44 0 32 6;
#X connect 45 0 46 0;
#X connect 46 0 32 7;
#X restore 433 149 pd decode;
#X floatatom 433 199 5 0 0 0 - - -;
#X text 470 198 sample number (0-255);
#N canvas 307 42 180 233 detect 0;
#X obj 28 22 inlet;
#X obj 30 190 outlet;
#X obj 28 56 t f f;
#X obj 28 85 -;
#X obj 28 109 sel 1 -255;
#X obj 85 136 t b;
#X connect 0 0 2 0;
#X connect 2 0 3 1;
#X connect 2 1 3 0;
#X connect 3 0 4 0;
#X connect 4 2 5 0;
#X connect 5 0 1 0;
#X restore 433 227 pd detect;
#X obj 433 246 bng 15 250 50 0 empty empty empty 17 7 0 10 -262144
-1 -1;
#X text 453 245 dropped package;
#X obj 795 42 unpack f f f;
#X obj 795 63 vsl 15 128 -4 4 0 0 empty empty empty 0 -9 0 10 -262144
-1 -1 0 1;
#X obj 829 63 vsl 15 128 -4 4 0 0 empty empty empty 0 -9 0 10 -262144
-1 -1 0 1;
#X obj 864 63 vsl 15 128 -4 4 0 0 empty empty empty 0 -9 0 10 -262144
-1 -1 0 1;
#X text 795 198 accelerometer xyz (-4 to 4g);
#X obj 615 63 vsl 15 128 -4000 4000 0 0 empty empty empty 0 -9 0 10
-262144 -1 -1 0 1;
#X obj 615 42 unpack f f f f f f f f;
#X text 615 198 8 channel data (uV);
#X obj 633 63 vsl 15 128 -4000 4000 0 0 empty empty empty 0 -9 0 10
-262144 -1 -1 0 1;
#X obj 651 63 vsl 15 128 -4000 4000 0 0 empty empty empty 0 -9 0 10
-262144 -1 -1 0 1;
#X obj 670 63 vsl 15 128 -4000 4000 0 0 empty empty empty 0 -9 0 10
-262144 -1 -1 0 1;
#X obj 688 63 vsl 15 128 -4000 4000 0 0 empty empty empty 0 -9 0 10
-262144 -1 -1 0 1;
#X obj 707 63 vsl 15 128 -4000 4000 0 0 empty empty empty 0 -9 0 10
-262144 -1 -1 0 1;
#X obj 725 63 vsl 15 128 -4000 4000 0 0 empty empty empty 0 -9 0 10
-262144 -1 -1 0 1;
#X obj 743 63 vsl 15 128 -4000 4000 0 0 empty empty empty 0 -9 0 10
-262144 -1 -1 0 1;
#X text 723 384 f.olofsson2019;
#X text 723 368 use with WifiShieldOSC.ino;
#X connect 0 0 1 0;
#X connect 1 0 2 0;
#X connect 3 0 13 0;
#X connect 4 0 5 0;
#X connect 5 0 6 0;
#X connect 6 0 37 0;
#X connect 6 1 7 0;
#X connect 8 0 13 0;
#X connect 9 0 13 0;
#X connect 10 0 0 0;
#X connect 11 0 10 0;
#X connect 12 0 10 0;
#X connect 12 1 11 0;
#X connect 13 0 12 0;
#X connect 14 0 4 0;
#X connect 15 0 2 0;
#X connect 16 0 0 0;
#X connect 17 0 16 0;
#X connect 19 0 13 0;
#X connect 20 0 13 0;
#X connect 21 0 13 0;
#X connect 22 0 13 0;
#X connect 24 0 25 0;
#X connect 25 0 0 0;
#X connect 26 0 0 0;
#X connect 27 0 28 0;
#X connect 28 0 26 0;
#X connect 29 0 28 0;
#X connect 33 0 28 0;
#X connect 36 0 28 0;
#X connect 37 0 38 0;
#X connect 37 1 49 0;
#X connect 37 2 43 0;
#X connect 38 0 40 0;
#X connect 40 0 41 0;
#X connect 43 0 44 0;
#X connect 43 1 45 0;
#X connect 43 2 46 0;
#X connect 49 0 48 0;
#X connect 49 1 51 0;
#X connect 49 2 52 0;
#X connect 49 3 53 0;
#X connect 49 4 54 0;
#X connect 49 5 55 0;
#X connect 49 6 56 0;
#X connect 49 7 57 0;
